Coordinates
version=1
nRows=22
nColumns=18
inDegrees=yes

Units are S.I. units (second, meters, Newtons, ...)
Angles are in degrees.

endheader
time	ground_thorax_rot_x	ground_thorax_rot_y	ground_thorax_rot_z	ground_thorax_tx	ground_thorax_ty	ground_thorax_tz	clav_prot	clav_elev	scapula_abduction	scapula_elevation	scapula_upward_rot	scapula_winging	plane_elv	shoulder_elv	axial_rot	elbow_flexion	pro_sup
      1.96000000	     -0.25653552	     -2.10665433	     -8.90155356	     -0.00423131	      0.00403036	     -0.00078352	    -44.44844428	      9.35909036	    -19.47021759	     -2.71568811	     58.35172419	    -13.78201648	      0.65405146	     73.54723861	     -1.72222752	      0.00000000	     34.32000000
      1.97000000	     -0.20530076	     -2.42857139	     -9.05056465	     -0.00423131	      0.00403036	     -0.00078352	    -44.54487341	      9.08214936	    -19.01469479	     -2.92310141	     58.99539277	    -13.78368304	      0.66535557	     73.73035424	     -1.77276174	      0.00000000	     34.32000000
      1.98000000	     -0.28769333	     -2.58629826	     -9.29475157	     -0.00423131	      0.00403036	     -0.00078352	    -44.50096256	      8.79080601	    -18.54035375	     -3.12324871	     59.38650113	    -13.68078918	      0.09511268	     74.19154158	     -1.69748441	      0.00000000	     34.32000000
      1.99000000	     -0.28275641	     -2.76967996	     -9.24183733	     -0.00423131	      0.00403036	     -0.00078352	    -44.47361834	      8.92319118	    -18.26692005	     -3.03818663	     59.73845867	    -13.71179301	      0.08438998	     74.55713504	     -1.74109902	      0.00000000	     34.32000000
      2.00000000	     -0.51117776	     -2.77449994	     -9.35540072	     -0.00423131	      0.00403036	     -0.00078352	    -44.40690784	      8.71724355	    -18.19597616	     -3.16973001	     59.60937854	    -13.60508973	      0.01695240	     75.22183695	     -1.62655950	      0.00000000	     34.32000000
      2.01000000	     -0.29134435	     -3.07675631	     -9.26222979	     -0.00423131	      0.00403036	     -0.00078352	    -44.42110559	      9.01399847	    -17.86667676	     -2.97990120	     60.18396286	    -13.71560780	      0.12314736	     75.32069221	     -1.75409936	      0.00000000	     34.32000000
      2.02000000	      0.09942114	     -3.30645016	     -9.10861560	     -0.00423131	      0.00403036	     -0.00078352	    -44.43771936	      9.49624335	    -17.40370812	     -2.66675605	     61.01371233	    -13.87951190	     -0.11770905	     75.46729583	     -2.20762202	      0.00000000	     34.32000000
      2.03000000	      0.12896445	     -3.36429203	     -9.14581521	     -0.00423131	      0.00403036	     -0.00078352	    -44.54334283	      9.56881620	    -17.45067539	     -2.62747592	     61.19275719	    -13.96926732	      0.19457962	     75.79714919	     -2.43755742	      0.00000000	     34.32000000
      2.04000000	      0.11967603	     -3.53360926	     -9.18517002	     -0.00423131	      0.00403036	     -0.00078352	    -44.56061210	      9.67091527	    -17.33629069	     -2.56202421	     61.41628360	    -14.01147621	      0.40360422	     76.08946720	     -2.58097284	      0.00000000	     34.32000000
      2.05000000	      0.10624565	     -3.74357290	     -9.19576929	     -0.00423131	      0.00403036	     -0.00078352	    -44.50091151	      9.82505908	    -17.08967799	     -2.45583033	     61.67922317	    -14.01871678	      0.41855808	     76.40354971	     -2.70285165	      0.00000000	     34.32000000
      2.06000000	     -0.60065863	     -3.41324786	     -9.37705675	     -0.00423131	      0.00403036	     -0.00078352	    -44.39736188	      9.37805141	    -17.50900173	     -2.74047271	     60.74957678	    -13.81654044	      0.54757320	     77.30947325	     -2.35441673	      0.00000000	     34.32000000
      2.07000000	      0.06741377	     -3.77518930	     -9.26701437	     -0.00423131	      0.00403036	     -0.00078352	    -44.58597120	     10.13968995	    -16.83917937	     -2.25385948	     62.30145223	    -14.16219377	      0.43038794	     77.11436069	     -2.74116179	      0.00000000	     34.32000000
      2.08000000	     -0.18434244	     -3.74340543	     -9.35904172	     -0.00423131	      0.00403036	     -0.00078352	    -44.60376739	     10.17987451	    -16.80652921	     -2.22832549	     62.39544642	    -14.18436062	      0.47688603	     77.26361613	     -2.74143349	      0.00000000	     34.32000000
      2.09000000	      0.06761994	     -3.95409662	     -9.35003596	     -0.00423131	      0.00403036	     -0.00078352	    -44.50582125	     10.33176525	    -16.26824049	     -2.11915207	     62.95016201	    -14.16158547	      0.44638253	     77.84109394	     -2.78053073	      0.00000000	     34.32000000
      2.10000000	      0.03122866	     -4.24890079	     -9.41119476	     -0.00423131	      0.00403036	     -0.00078352	    -44.26225515	     10.19492357	    -15.65233048	     -2.19151597	     63.18751634	    -13.96928506	      0.24406135	     78.26040332	     -2.73852742	      0.00000000	     34.32000000
      2.11000000	     -0.03041664	     -4.58762744	     -9.45739838	     -0.00423131	      0.00403036	     -0.00078352	    -43.97507584	      9.96270773	    -14.95680069	     -2.32430135	     63.39601497	    -13.72527442	     -0.02634335	     78.71458875	     -2.70024363	      0.00000000	     34.32000000
      2.12000000	     -0.05800311	     -4.80873438	     -9.50210938	     -0.00423131	      0.00403036	     -0.00078352	    -43.86420511	      9.87699735	    -14.55125289	     -2.37190679	     63.65029305	    -13.63090257	     -0.12534763	     79.01561134	     -2.71720247	      0.00000000	     34.32000000
      2.13000000	     -0.07082547	     -4.80241475	     -9.55122060	     -0.00423131	      0.00403036	     -0.00078352	    -44.02959480	      9.97808393	    -14.68085972	     -2.31537052	     63.85819118	    -13.75924858	      0.16300645	     79.17090844	     -2.69754664	      0.00000000	     34.32000000
      2.14000000	     -0.07342354	     -4.66257025	     -9.60497741	     -0.00423131	      0.00403036	     -0.00078352	    -44.33152876	     10.19114993	    -15.05514973	     -2.19389050	     64.07601158	    -14.00397718	      0.62733194	     79.23915783	     -2.57261147	      0.00000000	     34.32000000
      2.15000000	     -0.05275294	     -4.70125327	     -9.57988477	     -0.00423131	      0.00403036	     -0.00078352	    -44.45030895	     10.36559754	    -15.07897045	     -2.08361618	     64.35648458	    -14.12176843	      0.90539392	     79.47097766	     -2.58717235	      0.00000000	     34.32000000
      2.16000000	     -0.07731007	     -4.89417725	     -9.60638450	     -0.00423131	      0.00403036	     -0.00078352	    -44.41540218	     10.31646519	    -14.76009695	     -2.11026131	     64.66851646	    -14.08122472	      0.96262686	     79.81494682	     -2.61073982	      0.00000000	     34.32000000
      2.17000000	     -0.11623107	     -5.09687123	     -9.63050679	     -0.00423131	      0.00403036	     -0.00078352	    -44.34616433	     10.21740234	    -14.39908907	     -2.16771369	     64.94414750	    -14.00558618	      0.98663380	     80.14973856	     -2.61701877	      0.00000000	     34.32000000
